HIERARCHY
ROOT Hips
{
	OFFSET 0.000000 0.000000 0.000000
	CHANNELS 6 Xposition Yposition Zposition Xrotation Yrotation Zrotation
	JOINT LeftUpLeg_virtual
	{
		OFFSET 0.000000 0.000000 0.000000
		CHANNELS 3 Xrotation Yrotation Zrotation
		JOINT LeftUpLeg
		{
			OFFSET 10.205400 -3.823500 0.155100
			CHANNELS 3 Xrotation Yrotation Zrotation
			JOINT LeftLeg
			{
				OFFSET 0.708757 -12.982077 0.567790
				CHANNELS 3 Xrotation Yrotation Zrotation
				JOINT LeftFoot
				{
					OFFSET -0.708756 -10.717838 -2.184338
					CHANNELS 3 Xrotation Yrotation Zrotation
					JOINT LeftToeBase
					{
						OFFSET 0.108149 -7.191104 7.560241
						CHANNELS 3 Xrotation Yrotation Zrotation
						JOINT LeftToe_End
						{
							OFFSET 0.070230 0.081724 4.490308
							CHANNELS 3 Xrotation Yrotation Zrotation
							End Site
							{
								OFFSET 0 0 0
							}
						}
					}
				}
			}
		}
	}
	JOINT RightUpLeg_virtual
	{
		OFFSET 0.000000 0.000000 0.000000
		CHANNELS 3 Xrotation Yrotation Zrotation
		JOINT RightUpLeg
		{
			OFFSET -10.205400 -3.823500 0.005500
			CHANNELS 3 Xrotation Yrotation Zrotation
			JOINT RightLeg
			{
				OFFSET -0.708756 -12.982134 0.610632
				CHANNELS 3 Xrotation Yrotation Zrotation
				JOINT RightFoot
				{
					OFFSET 0.708754 -10.717769 -1.945823
					CHANNELS 3 Xrotation Yrotation Zrotation
					JOINT RightToeBase
					{
						OFFSET -0.108140 -7.191069 7.372968
						CHANNELS 3 Xrotation Yrotation Zrotation
						JOINT RightToe_End
						{
							OFFSET -0.070227 0.081735 4.479403
							CHANNELS 3 Xrotation Yrotation Zrotation
							End Site
							{
								OFFSET 0 0 0
							}
						}
					}
				}
			}
		}
	}
	JOINT Spine_virtual
	{
		OFFSET 0.000000 0.000000 0.000000
		CHANNELS 3 Xrotation Yrotation Zrotation
		JOINT Spine
		{
			OFFSET 0.000000 6.876099 0.125700
			CHANNELS 3 Xrotation Yrotation Zrotation
			JOINT Spine1
			{
				OFFSET 0.000000 5.730043 0.104720
				CHANNELS 3 Xrotation Yrotation Zrotation
				JOINT Spine1_split
				{
					OFFSET 0.000000 5.730043 0.104720
					CHANNELS 3 Xrotation Yrotation Zrotation
					JOINT Spine2
					{
						OFFSET 0.000000 5.730043 0.104720
						CHANNELS 3 Xrotation Yrotation Zrotation
						JOINT Neck_virtual
						{
							OFFSET 0.000000 0.000000 0.000000
							CHANNELS 3 Xrotation Yrotation Zrotation
							JOINT Neck
							{
								OFFSET 0.000000 10.314075 0.188496
								CHANNELS 3 Xrotation Yrotation Zrotation
								JOINT Head
								{
									OFFSET 0.000000 7.643700 -2.377400
									CHANNELS 3 Xrotation Yrotation Zrotation
									JOINT HeadTop_End
									{
										OFFSET 0.000000 43.788605 -13.619600
										CHANNELS 3 Xrotation Yrotation Zrotation
										End Site
										{
											OFFSET 0 0 0
										}
									}
								}
							}
						}
						JOINT LeftShoulder_virtual
						{
							OFFSET 0.000000 0.000000 0.000000
							CHANNELS 3 Xrotation Yrotation Zrotation
							JOINT LeftShoulder
							{
								OFFSET 2.196100 4.412489 0.087492
								CHANNELS 3 Xrotation Yrotation Zrotation
								JOINT LeftShoulder_split
								{
									OFFSET 2.196100 4.412489 0.087492
									CHANNELS 3 Xrotation Yrotation Zrotation
									JOINT LeftArm
									{
										OFFSET 8.771219 -2.981674 -0.026999
										CHANNELS 3 Xrotation Yrotation Zrotation
										JOINT LeftForeArm
										{
											OFFSET 8.512804 0.000000 -0.000000
											CHANNELS 3 Xrotation Yrotation Zrotation
											JOINT LeftHand
											{
												OFFSET 18.484802 0.000000 -0.000000
												CHANNELS 3 Xrotation Yrotation Zrotation
												End Site
												{
													OFFSET 0 0 0
												}
											}
										}
									}
								}
							}
						}
						JOINT RightShoulder_virtual
						{
							OFFSET 0.000000 0.000000 0.000000
							CHANNELS 3 Xrotation Yrotation Zrotation
							JOINT RightShoulder
							{
								OFFSET -2.196100 4.412496 0.070690
								CHANNELS 3 Xrotation Yrotation Zrotation
								JOINT RightShoulder_split
								{
									OFFSET -2.196100 4.412496 0.070690
									CHANNELS 3 Xrotation Yrotation Zrotation
									JOINT RightArm
									{
										OFFSET -8.771282 -2.981682 -0.094208
										CHANNELS 3 Xrotation Yrotation Zrotation
										JOINT RightForeArm
										{
											OFFSET -8.494598 0.000000 0.000000
											CHANNELS 3 Xrotation Yrotation Zrotation
											JOINT RightHand
											{
												OFFSET -18.483803 0.000000 0.000001
												CHANNELS 3 Xrotation Yrotation Zrotation
												End Site
												{
													OFFSET 0 0 0
												}
											}
										}
									}
								}
							}
						}
					}
				}
			}
		}
	}
}
MOTION
Frames: 9
Frame Time: 0.03333333
0.320118 19.598499 7.334452 0.000000 0.000000 0.000000 -3.457812 3.982757 0.235198 -89.729349 -13.829099 14.027218 87.198717 -1.629132 0.745692 12.693246 -5.493413 -10.136983 -3.595789 0.059205 -1.837500 0.000000 0.000000 0.000000 -3.898442 4.826676 0.334733 -90.607910 10.518706 -14.587003 91.374858 1.786205 -1.426267 9.282941 -0.134446 12.393615 4.343936 0.894730 -0.318280 0.000000 0.000000 0.000000 -3.466408 0.366433 -0.526262 11.304194 -0.309427 -0.098733 0.196266 0.952858 -0.582706 1.076428 0.839155 0.076515 0.000000 0.000000 0.000000 -0.076459 0.551816 0.023652 -1.995364 -0.736700 -1.355383 -11.365723 -5.692147 -4.794664 0.000000 0.000000 0.000000 -0.691499 0.893346 -0.275482 1.644244 -16.541458 -2.818666 -1.107535 -0.356851 -1.385344 -0.346682 -17.330043 -59.375046 -2.249519 -52.933297 -1.831939 0.000000 0.000000 0.000000 0.324152 0.826865 0.064745 3.551178 -8.077184 8.582035 3.956636 3.247666 -3.599753 -9.446280 38.429390 72.713914 1.288409 60.455889 -3.123456 0.000000 0.000000 0.000000 
0.365092 19.609438 7.291432 0.000000 0.000000 0.000000 -3.251187 4.032738 0.234078 -89.680917 -13.957510 14.028658 87.049764 -1.735244 0.620162 12.778907 -5.512628 -10.142665 -3.632634 0.095270 -1.889148 0.000000 0.000000 0.000000 -3.944572 4.895312 0.333148 -90.699373 10.491265 -14.589252 91.345707 1.734074 -1.470656 9.686216 -0.289454 12.350848 4.381233 0.816615 -0.132758 0.000000 0.000000 0.000000 -3.425980 0.345709 -0.479189 11.306850 -0.338232 -0.097632 0.337911 0.944509 -0.595075 1.142760 1.003583 0.169482 0.000000 0.000000 0.000000 0.138703 0.519550 0.074047 -1.970451 -0.792367 -1.234377 -11.417745 -6.039304 -4.764504 0.000000 0.000000 0.000000 -0.651505 0.930423 -0.240941 1.629478 -16.384300 -2.436359 -1.082034 -0.987877 -1.070481 -0.716166 -17.497085 -59.862442 -1.675019 -53.083940 -1.653467 0.000000 0.000000 0.000000 0.387997 0.789334 0.037039 3.463570 -7.977406 8.367637 3.745058 3.134090 -2.998881 -9.718897 38.701054 73.187362 1.207129 59.306580 -2.988562 0.000000 0.000000 0.000000 
0.406296 19.599701 7.271379 0.000000 0.000000 0.000000 -3.015026 3.978698 0.173266 -89.932746 -13.965817 14.124849 87.241890 -1.583869 0.401077 12.825502 -5.104331 -10.052016 -3.538690 0.182598 -1.903004 0.000000 0.000000 0.000000 -3.909158 5.009533 0.261810 -90.867744 10.492316 -14.494500 91.520191 1.798656 -1.667382 10.062530 -0.545775 12.499055 4.036889 0.770677 -0.119783 0.000000 0.000000 0.000000 -3.268137 0.416228 -0.467410 11.498297 -0.357051 -0.046569 0.650746 0.913461 -0.651927 1.115437 1.235390 0.191641 0.000000 0.000000 0.000000 0.473558 0.489436 0.066797 -1.650653 -0.936988 -1.018358 -11.892030 -6.431209 -4.567679 0.000000 0.000000 0.000000 -0.387092 0.948867 -0.255584 1.807603 -15.571098 -0.863065 -0.532643 -1.186793 -0.842897 -2.535921 -17.582662 -61.878153 -0.872306 -53.754887 -1.290555 0.000000 0.000000 0.000000 0.673324 0.739656 -0.052912 3.332001 -8.057338 7.483189 3.624618 2.937487 -2.289604 -10.887603 39.028001 74.395547 0.861553 57.916104 -2.430938 0.000000 0.000000 0.000000 
0.428066 19.582230 7.267346 0.000000 0.000000 0.000000 -2.712224 3.879340 0.065500 -90.353711 -13.874363 14.178852 87.648211 -1.265517 0.208550 12.635776 -4.390574 -10.014775 -3.345596 0.300751 -1.859969 0.000000 0.000000 0.000000 -3.704045 5.173747 0.172094 -91.102859 10.540441 -14.243946 91.576437 1.910669 -2.016280 10.169317 -0.907776 12.745101 3.492295 0.766530 -0.285591 0.000000 0.000000 0.000000 -2.935787 0.594040 -0.489611 11.836097 -0.372487 0.018154 1.097436 0.861711 -0.731347 1.077323 1.356666 0.079311 0.000000 0.000000 0.000000 0.897597 0.461189 0.011145 -1.068861 -1.120145 -0.723901 -12.739730 -6.734232 -4.306088 0.000000 0.000000 0.000000 0.065423 0.929635 -0.293703 2.105777 -14.257131 1.634839 0.020362 -0.964460 -0.715152 -5.472185 -17.588579 -65.100111 -0.025212 -54.621122 -0.853950 0.000000 0.000000 0.000000 1.141063 0.680420 -0.177573 3.204506 -8.366255 6.067000 3.722912 2.790718 -1.596351 -12.854383 39.259296 76.192365 0.440645 56.606402 -1.655324 0.000000 0.000000 0.000000 
0.452808 19.574804 7.288081 0.000000 0.000000 0.000000 -2.330795 3.775884 -0.031083 -90.820711 -13.692812 14.103872 88.129057 -0.951216 0.162472 12.167078 -3.619843 -10.280294 -3.160591 0.414419 -1.719774 0.000000 0.000000 0.000000 -3.349420 5.424351 0.110721 -91.400048 10.586898 -13.814435 91.368930 1.972051 -2.478604 10.030893 -1.424565 13.032810 2.961785 0.795174 -0.568238 0.000000 0.000000 0.000000 -2.390758 0.906726 -0.526891 12.243359 -0.397560 0.041537 1.639627 0.799336 -0.802799 1.144301 1.065259 -0.003305 0.000000 0.000000 0.000000 1.364164 0.430038 -0.068136 -0.271068 -1.344034 -0.357147 -13.783301 -6.779282 -4.067794 0.000000 0.000000 0.000000 0.679887 0.881754 -0.333541 2.430314 -12.607120 4.591744 0.316146 -0.584549 -0.931139 -8.991280 -17.575965 -68.962419 0.679021 -55.571191 -0.450841 0.000000 0.000000 0.000000 1.733173 0.621546 -0.302311 3.112810 -8.883033 4.354714 3.942980 2.767260 -1.046206 -15.276222 39.230493 78.442448 0.180259 55.620163 -0.911950 0.000000 0.000000 0.000000 
0.493559 19.593191 7.326122 0.000000 0.000000 0.000000 -1.820528 3.888530 -0.056038 -91.312048 -13.410262 13.819257 88.566831 -0.795438 0.277065 11.413288 -3.014908 -10.916002 -3.097790 0.493375 -1.432926 0.000000 0.000000 0.000000 -2.805963 5.698967 0.126008 -91.825808 10.667915 -13.252601 90.953634 1.960558 -3.005137 9.880063 -2.113725 13.475437 2.449676 0.816678 -0.891219 0.000000 0.000000 0.000000 -1.620907 1.424789 -0.561729 12.622383 -0.446953 -0.035529 2.239581 0.732054 -0.842973 1.112114 0.704005 -0.159395 0.000000 0.000000 0.000000 1.849852 0.405889 -0.145618 0.623767 -1.571962 0.051365 -14.811964 -6.539263 -3.938145 0.000000 0.000000 0.000000 1.400643 0.828911 -0.370719 2.718192 -10.895132 7.494075 0.395053 -0.234947 -1.456161 -12.368496 -17.484579 -72.843633 1.160810 -56.544845 -0.133934 0.000000 0.000000 0.000000 2.382992 0.577613 -0.400893 3.070619 -9.523294 2.591794 4.191388 2.834234 -0.650933 -17.842227 38.778945 80.958369 0.196082 55.038245 -0.384108 0.000000 0.000000 0.000000 
0.536700 19.628166 7.389852 0.000000 0.000000 0.000000 -1.082864 4.246835 0.001412 -91.838211 -12.993119 13.412509 88.875945 -0.858942 0.475940 10.423370 -2.666448 -11.799682 -3.127135 0.534852 -1.034182 0.000000 0.000000 0.000000 -2.032238 6.007848 0.237319 -92.421223 10.827920 -12.651426 90.479427 1.897570 -3.584642 9.842384 -2.936391 14.167197 1.771981 0.802159 -1.194844 0.000000 0.000000 0.000000 -0.614643 2.090973 -0.578914 12.955312 -0.528010 -0.227097 2.841382 0.682751 -0.852856 1.099315 0.395535 -0.301935 0.000000 0.000000 0.000000 2.327622 0.407319 -0.212217 1.476639 -1.842478 0.409074 -15.643416 -6.147145 -3.934129 0.000000 0.000000 0.000000 2.160687 0.783202 -0.409366 2.948062 -9.372931 9.908059 0.462272 -0.042880 -1.769063 -15.090056 -17.272339 -76.344200 1.527649 -57.707913 0.201434 0.000000 0.000000 0.000000 3.037199 0.586169 -0.470648 3.055049 -10.163825 0.963362 4.281724 2.928031 -0.362571 -20.281757 37.794538 83.488141 0.441710 54.847973 -0.124025 0.000000 0.000000 0.000000 
0.594410 19.656052 7.516227 0.000000 0.000000 0.000000 -0.079819 4.736026 0.117722 -92.500029 -12.515318 13.043819 89.045593 -1.096788 0.611783 9.207392 -2.484035 -12.675743 -3.130531 0.553021 -0.620342 0.000000 0.000000 0.000000 -0.937247 6.271909 0.394773 -93.184940 11.053151 -12.055638 90.167574 1.782187 -4.175327 9.715523 -3.876990 14.985167 1.005975 0.723314 -1.432398 0.000000 0.000000 0.000000 0.608423 2.803439 -0.553600 13.241513 -0.631463 -0.496356 3.372078 0.678502 -0.850203 1.102254 0.109992 -0.395288 0.000000 0.000000 0.000000 2.774379 0.451949 -0.266060 2.135426 -2.166508 0.654144 -16.106518 -5.715015 -4.006610 0.000000 0.000000 0.000000 2.879915 0.774288 -0.460354 3.128065 -8.231480 11.592421 0.572939 -0.034482 -1.693544 -16.744031 -16.870262 -79.102825 1.832762 -59.301997 0.620108 0.000000 0.000000 0.000000 3.658729 0.661525 -0.514252 3.022081 -10.720924 -0.415735 4.071017 2.990627 -0.177448 -22.213763 36.375696 85.728805 0.785474 54.964680 -0.104478 0.000000 0.000000 0.000000 
0.662941 19.663773 7.739887 0.000000 0.000000 0.000000 1.277136 5.246169 0.245422 -93.342151 -12.078570 12.861970 89.181357 -1.404692 0.587463 7.766260 -2.330532 -13.317648 -2.991704 0.561663 -0.283862 0.000000 0.000000 0.000000 0.571072 6.493105 0.515203 -94.099489 11.354339 -11.507939 90.341382 1.584347 -4.681958 9.211834 -4.963877 15.620460 0.744869 0.599721 -1.576152 0.000000 0.000000 0.000000 2.108244 3.441271 -0.501003 13.478613 -0.736782 -0.777895 3.795849 0.737786 -0.848156 0.961650 -0.198631 -0.442774 0.000000 0.000000 0.000000 3.160825 0.534721 -0.314373 2.513780 -2.509976 0.753746 -16.129164 -5.454169 -4.106136 0.000000 0.000000 0.000000 3.455796 0.804270 -0.537336 3.295510 -7.632699 12.508438 0.706864 -0.048331 -1.289522 -17.478355 -16.152928 -81.069195 2.216541 -61.268545 1.195921 0.000000 0.000000 0.000000 4.191569 0.793690 -0.545617 2.950930 -11.124589 -1.523547 3.801786 2.905335 -0.049724 -23.405339 34.836366 87.347977 1.031544 55.411443 -0.192348 0.000000 0.000000 0.000000 
